<svg width="106" height="120" viewBox="0 0 106 120" fill="none" xmlns="http://www.w3.org/2000/svg">
<path d="M6.19199 26.46V3.456H1.11599V-1.43051e-06H15.3V3.456H10.224V26.46H6.19199ZM19.332 26.46V-1.43051e-06H23.328V10.98C23.52 10.5 23.748 10.032 24.012 9.576C24.3 9.12 24.636 8.736 25.02 8.424C25.428 8.088 25.884 7.848 26.388 7.704C26.892 7.536 27.408 7.452 27.936 7.452C28.512 7.452 29.064 7.548 29.592 7.74C30.144 7.932 30.624 8.232 31.032 8.64C31.464 9.024 31.812 9.468 32.076 9.972C32.34 10.476 32.544 11.004 32.688 11.556C32.856 12.108 32.964 12.672 33.012 13.248C33.06 13.8 33.084 14.364 33.084 14.94V26.46H29.088V14.94C29.088 14.628 29.064 14.316 29.016 14.004C28.992 13.692 28.932 13.392 28.836 13.104C28.764 12.792 28.644 12.504 28.476 12.24C28.332 11.976 28.14 11.736 27.9 11.52C27.684 11.304 27.42 11.148 27.108 11.052C26.82 10.956 26.52 10.908 26.208 10.908C25.896 10.908 25.584 10.956 25.272 11.052C24.984 11.148 24.72 11.304 24.48 11.52C24.264 11.736 24.072 11.976 23.904 12.24C23.76 12.504 23.64 12.792 23.544 13.104C23.472 13.392 23.412 13.692 23.364 14.004C23.34 14.316 23.328 14.628 23.328 14.94V26.46H19.332ZM44.208 26.748C43.536 26.748 42.876 26.688 42.228 26.568C41.58 26.448 40.968 26.232 40.392 25.92C39.816 25.608 39.3 25.212 38.844 24.732C38.412 24.228 38.052 23.676 37.764 23.076C37.5 22.476 37.308 21.852 37.188 21.204C37.092 20.556 37.044 19.908 37.044 19.26V14.94C37.044 14.292 37.092 13.644 37.188 12.996C37.308 12.324 37.5 11.7 37.764 11.124C38.052 10.524 38.424 9.984 38.88 9.504C39.336 9 39.852 8.592 40.428 8.28C41.004 7.968 41.616 7.752 42.264 7.632C42.912 7.512 43.56 7.452 44.208 7.452C44.808 7.452 45.396 7.488 45.972 7.56C46.572 7.632 47.148 7.776 47.7 7.992C48.252 8.208 48.768 8.496 49.248 8.856C49.728 9.216 50.124 9.636 50.436 10.116C50.772 10.596 51.012 11.136 51.156 11.736C51.3 12.312 51.372 12.888 51.372 13.464C51.372 14.064 51.3 14.652 51.156 15.228C51.012 15.804 50.76 16.332 50.4 16.812C50.064 17.268 49.644 17.664 49.14 18C48.66 18.336 48.144 18.6 47.592 18.792C47.04 18.984 46.464 19.116 45.864 19.188C45.288 19.26 44.712 19.296 44.136 19.296H41.076C41.076 19.776 41.124 20.256 41.22 20.736C41.316 21.216 41.496 21.66 41.76 22.068C42.024 22.452 42.372 22.752 42.804 22.968C43.26 23.184 43.728 23.292 44.208 23.292C44.568 23.292 44.928 23.256 45.288 23.184C45.648 23.112 45.972 22.98 46.26 22.788C46.572 22.572 46.812 22.296 46.98 21.96C47.172 21.624 47.28 21.276 47.304 20.916H51.3C51.3 21.492 51.216 22.056 51.048 22.608C50.88 23.16 50.628 23.676 50.292 24.156C49.956 24.636 49.548 25.044 49.068 25.38C48.612 25.716 48.108 25.992 47.556 26.208C47.028 26.424 46.476 26.568 45.9 26.64C45.348 26.712 44.784 26.748 44.208 26.748ZM41.04 15.84H44.136C44.52 15.84 44.892 15.816 45.252 15.768C45.636 15.696 45.984 15.564 46.296 15.372C46.632 15.156 46.896 14.88 47.088 14.544C47.28 14.208 47.376 13.848 47.376 13.464C47.376 13.08 47.292 12.708 47.124 12.348C46.956 11.988 46.716 11.7 46.404 11.484C46.092 11.268 45.744 11.124 45.36 11.052C44.976 10.956 44.604 10.908 44.244 10.908C43.74 10.908 43.26 11.016 42.804 11.232C42.372 11.448 42.012 11.76 41.724 12.168C41.46 12.576 41.28 13.02 41.184 13.5C41.088 13.98 41.04 14.46 41.04 14.94V15.84ZM5.83199 73.784C5.35199 73.784 4.81199 73.736 4.21199 73.64C3.63599 73.544 3.08399 73.424 2.55599 73.28C2.05199 73.136 1.65599 72.98 1.36799 72.812C1.19999 72.716 1.06799 72.62 0.971993 72.524C0.899993 72.404 0.863993 72.212 0.863993 71.948L0.683993 66.296C0.683993 65.816 0.839993 65.576 1.15199 65.576C1.41599 65.576 1.59599 65.792 1.69199 66.224L2.01599 67.592C2.83199 71.024 4.35599 72.74 6.58799 72.74C7.78799 72.74 8.73599 72.344 9.43199 71.552C10.152 70.736 10.512 69.596 10.512 68.132C10.512 66.716 10.14 65.396 9.39599 64.172C8.67599 62.948 7.51199 61.736 5.90399 60.536C4.12799 59.264 2.83199 58.04 2.01599 56.864C1.19999 55.664 0.791993 54.392 0.791993 53.048C0.791993 51.272 1.40399 49.856 2.62799 48.8C3.87599 47.72 5.45999 47.18 7.37999 47.18C8.09999 47.18 8.79599 47.264 9.46799 47.432C10.14 47.6 10.692 47.84 11.124 48.152C11.268 48.248 11.376 48.356 11.448 48.476C11.544 48.596 11.592 48.752 11.592 48.944L11.7 54.38C11.7 54.788 11.544 54.992 11.232 54.992C11.016 54.992 10.86 54.824 10.764 54.488L10.512 53.588C9.98399 51.74 9.43199 50.396 8.85599 49.556C8.30399 48.692 7.49999 48.26 6.44399 48.26C5.41199 48.26 4.58399 48.596 3.95999 49.268C3.35999 49.94 3.05999 50.888 3.05999 52.112C3.05999 53.144 3.39599 54.128 4.06799 55.064C4.73999 56 5.91599 57.14 7.59599 58.484C9.39599 59.948 10.704 61.364 11.52 62.732C12.36 64.076 12.78 65.516 12.78 67.052C12.78 68.396 12.48 69.572 11.88 70.58C11.28 71.588 10.452 72.38 9.39599 72.956C8.36399 73.508 7.17599 73.784 5.83199 73.784ZM21.1761 73.784C19.9521 73.784 18.8481 73.376 17.8641 72.56C16.9041 71.72 16.1361 70.58 15.5601 69.14C14.9841 67.7 14.6961 66.092 14.6961 64.316C14.6961 62.54 14.9841 60.944 15.5601 59.528C16.1361 58.112 16.9161 56.984 17.9001 56.144C18.8841 55.304 19.9761 54.884 21.1761 54.884C22.4001 54.884 23.4921 55.304 24.4521 56.144C25.4361 56.984 26.2161 58.112 26.7921 59.528C27.3681 60.944 27.6561 62.54 27.6561 64.316C27.6561 66.092 27.3681 67.7 26.7921 69.14C26.2401 70.58 25.4721 71.72 24.4881 72.56C23.5041 73.376 22.4001 73.784 21.1761 73.784ZM21.1761 72.884C23.6721 72.884 24.9201 70.028 24.9201 64.316C24.9201 58.628 23.6721 55.784 21.1761 55.784C18.6801 55.784 17.4321 58.628 17.4321 64.316C17.4321 70.028 18.6801 72.884 21.1761 72.884ZM31.6235 71.048V56.972C31.6235 56.396 31.3355 56.108 30.7595 56.108H29.9315C29.6435 56.108 29.4995 55.988 29.4995 55.748C29.4995 55.508 29.6435 55.376 29.9315 55.352C31.0595 55.232 31.6235 54.74 31.6235 53.876V53.66C31.6235 52.412 31.8035 51.248 32.1635 50.168C32.5475 49.088 33.0875 48.212 33.7835 47.54C34.5035 46.868 35.3795 46.532 36.4115 46.532C37.3715 46.532 38.1755 46.808 38.8235 47.36C39.4715 47.912 39.7955 48.572 39.7955 49.34C39.7955 49.796 39.6755 50.144 39.4355 50.384C39.2195 50.6 38.9195 50.708 38.5355 50.708C38.0555 50.708 37.7075 50.552 37.4915 50.24C37.2995 49.928 37.1435 49.58 37.0235 49.196C36.9035 48.788 36.7475 48.428 36.5555 48.116C36.3875 47.804 36.0755 47.648 35.6195 47.648C35.1395 47.648 34.7555 47.924 34.4675 48.476C34.2035 49.004 34.0715 50.012 34.0715 51.5V54.668C34.0715 54.956 34.2155 55.1 34.5035 55.1H37.5995C37.9595 55.1 38.1395 55.268 38.1395 55.604C38.1395 55.94 37.9595 56.108 37.5995 56.108H34.5035C34.2155 56.108 34.0715 56.252 34.0715 56.54V71.048C34.0715 71.552 34.1435 71.9 34.2875 72.092C34.4555 72.284 34.7915 72.404 35.2955 72.452L37.2035 72.632C37.4675 72.68 37.5995 72.812 37.5995 73.028C37.5995 73.316 37.4195 73.46 37.0595 73.46H29.5715C29.2115 73.46 29.0315 73.328 29.0315 73.064C29.0315 72.8 29.1875 72.656 29.4995 72.632L30.3995 72.56C30.9035 72.512 31.2275 72.38 31.3715 72.164C31.5395 71.924 31.6235 71.552 31.6235 71.048ZM43.5234 73.784C42.6834 73.784 41.9874 73.496 41.4354 72.92C40.9074 72.32 40.6434 71.348 40.6434 70.004V56.54C40.6434 56.252 40.4994 56.108 40.2114 56.108H39.1674C38.7834 56.108 38.5914 55.964 38.5914 55.676C38.5914 55.484 38.6994 55.316 38.9154 55.172C39.7074 54.62 40.3434 54.032 40.8234 53.408C41.3034 52.76 41.7234 51.884 42.0834 50.78C42.2514 50.276 42.4554 50.024 42.6954 50.024C42.9594 50.024 43.0914 50.216 43.0914 50.6V54.596C43.0914 54.932 43.2594 55.1 43.5954 55.1H45.9354C46.3194 55.1 46.5114 55.268 46.5114 55.604C46.5114 55.94 46.3194 56.108 45.9354 56.108H43.5954C43.2594 56.108 43.0914 56.276 43.0914 56.612V70.04C43.0914 70.568 43.1754 70.988 43.3434 71.3C43.5114 71.588 43.8234 71.732 44.2794 71.732C44.7834 71.732 45.1914 71.48 45.5034 70.976C45.8394 70.472 46.0554 69.656 46.1514 68.528C46.1994 68.192 46.3554 68.024 46.6194 68.024C46.9074 68.024 47.0514 68.204 47.0514 68.564C46.9794 70.412 46.5954 71.744 45.8994 72.56C45.2274 73.376 44.4354 73.784 43.5234 73.784ZM53.5767 73.784C53.2647 73.784 53.0487 73.544 52.9287 73.064L48.5727 57.512C48.4047 56.936 48.2367 56.564 48.0687 56.396C47.9247 56.228 47.6847 56.108 47.3487 56.036L46.8087 55.928C46.4967 55.856 46.3407 55.7 46.3407 55.46C46.3407 55.22 46.5087 55.1 46.8447 55.1H52.6767C53.0127 55.1 53.1807 55.22 53.1807 55.46C53.1807 55.724 53.0247 55.88 52.7127 55.928L52.1367 56C51.5607 56.072 51.2007 56.216 51.0567 56.432C50.9127 56.624 50.9127 56.984 51.0567 57.512L53.9007 67.988C53.9727 68.228 54.0807 68.348 54.2247 68.348C54.3927 68.348 54.5127 68.228 54.5847 67.988L57.0327 58.664C57.0807 58.472 57.1047 58.28 57.1047 58.088C57.1287 57.896 57.1047 57.692 57.0327 57.476C56.8647 56.9 56.6967 56.54 56.5287 56.396C56.3847 56.228 56.1447 56.108 55.8087 56.036L55.2687 55.928C54.9567 55.856 54.8007 55.7 54.8007 55.46C54.8007 55.22 54.9687 55.1 55.3047 55.1H61.1367C61.4727 55.1 61.6407 55.22 61.6407 55.46C61.6407 55.724 61.4847 55.88 61.1727 55.928L60.5967 56C60.0207 56.072 59.6727 56.216 59.5527 56.432C59.4327 56.624 59.4207 56.984 59.5167 57.512L61.8207 67.916C61.8687 68.156 61.9647 68.276 62.1087 68.276C62.2767 68.276 62.3967 68.156 62.4687 67.916L65.2047 58.16C65.3967 57.512 65.4447 57.032 65.3487 56.72C65.2767 56.384 64.9407 56.168 64.3407 56.072L63.5847 55.928C63.2727 55.856 63.1167 55.7 63.1167 55.46C63.1167 55.22 63.2847 55.1 63.6207 55.1H68.1207C68.4567 55.1 68.6247 55.232 68.6247 55.496C68.6247 55.736 68.4807 55.904 68.1927 56L67.8687 56.108C67.5087 56.228 67.1967 56.444 66.9327 56.756C66.6687 57.068 66.4287 57.608 66.2127 58.376L62.1087 73.064C61.9887 73.544 61.7607 73.784 61.4247 73.784C61.1367 73.784 60.9327 73.544 60.8127 73.064L58.0047 61.544C57.9327 61.28 57.8127 61.148 57.6447 61.148C57.5007 61.124 57.3927 61.256 57.3207 61.544L54.2247 73.064C54.1047 73.544 53.8887 73.784 53.5767 73.784ZM72.2233 73.784C71.2153 73.784 70.3873 73.472 69.7393 72.848C69.0913 72.2 68.7673 71.348 68.7673 70.292C68.7673 69.26 69.0913 68.288 69.7393 67.376C70.3873 66.44 71.2753 65.6 72.4033 64.856C73.5313 64.112 74.8153 63.512 76.2553 63.056C76.5673 62.96 76.7233 62.756 76.7233 62.444V59.168C76.7233 58.016 76.5433 57.2 76.1833 56.72C75.8233 56.216 75.3313 55.964 74.7073 55.964C74.1073 55.964 73.5553 56.24 73.0513 56.792C72.5713 57.32 72.2233 58.22 72.0073 59.492C71.8873 60.26 71.6233 60.824 71.2153 61.184C70.8313 61.52 70.4353 61.688 70.0273 61.688C69.3553 61.688 69.0193 61.352 69.0193 60.68C69.0193 59.984 69.2113 59.3 69.5953 58.628C70.0033 57.932 70.5313 57.308 71.1793 56.756C71.8273 56.18 72.5353 55.724 73.3033 55.388C74.0713 55.052 74.8393 54.884 75.6073 54.884C77.9833 54.884 79.1713 56.264 79.1713 59.024V70.04C79.1713 71.048 79.4233 71.552 79.9273 71.552C80.2393 71.552 80.5273 71.348 80.7913 70.94C81.0553 70.508 81.1873 69.788 81.1873 68.78C81.1873 68.396 81.3433 68.204 81.6553 68.204C81.9433 68.204 82.0873 68.408 82.0873 68.816C82.0873 70.568 81.7753 71.84 81.1513 72.632C80.5513 73.4 79.8673 73.784 79.0993 73.784C78.5233 73.784 78.0673 73.556 77.7313 73.1C77.3953 72.62 77.1673 72.056 77.0473 71.408C77.0233 71.168 76.9153 71.048 76.7233 71.048C76.5553 71.024 76.3873 71.132 76.2193 71.372C75.6433 72.164 75.0553 72.764 74.4553 73.172C73.8553 73.58 73.1113 73.784 72.2233 73.784ZM73.1953 72.128C73.8193 72.128 74.3953 71.912 74.9233 71.48C75.4513 71.024 75.8833 70.424 76.2193 69.68C76.5553 68.936 76.7233 68.096 76.7233 67.16V64.532C76.7233 64.076 76.4713 63.944 75.9673 64.136C74.5033 64.664 73.3633 65.396 72.5473 66.332C71.7553 67.244 71.3593 68.348 71.3593 69.644C71.3593 71.3 71.9713 72.128 73.1953 72.128ZM87.8262 57.404C88.8102 55.724 89.9982 54.884 91.3902 54.884C92.1822 54.884 92.7702 55.124 93.1542 55.604C93.5382 56.06 93.7302 56.576 93.7302 57.152C93.7302 57.608 93.6102 57.98 93.3702 58.268C93.1542 58.556 92.8062 58.7 92.3262 58.7C91.9422 58.7 91.6542 58.616 91.4622 58.448C91.2942 58.256 91.1502 58.04 91.0302 57.8C90.9342 57.56 90.8142 57.356 90.6702 57.188C90.5262 56.996 90.2862 56.9 89.9502 56.9C89.5182 56.9 89.1102 57.164 88.7262 57.692C88.3422 58.196 88.0182 58.88 87.7542 59.744C87.5142 60.608 87.3942 61.592 87.3942 62.696V71.048C87.3942 71.552 87.4662 71.912 87.6102 72.128C87.7782 72.344 88.1142 72.476 88.6182 72.524L89.5902 72.632C89.8542 72.68 89.9862 72.812 89.9862 73.028C89.9862 73.316 89.8062 73.46 89.4462 73.46H83.3622C83.0022 73.46 82.8222 73.328 82.8222 73.064C82.8222 72.848 82.9782 72.704 83.2902 72.632L83.7222 72.56C84.2262 72.464 84.5502 72.32 84.6942 72.128C84.8622 71.912 84.9462 71.552 84.9462 71.048V58.952C84.9462 58.52 84.8742 58.232 84.7302 58.088C84.6102 57.92 84.3822 57.812 84.0462 57.764L83.2902 57.656C82.9782 57.632 82.8222 57.5 82.8222 57.26C82.8222 57.068 83.0142 56.936 83.3982 56.864C84.1422 56.744 84.7062 56.552 85.0902 56.288C85.4982 56.024 85.9182 55.7 86.3502 55.316C86.5662 55.1 86.7462 54.992 86.8902 54.992C87.1062 54.992 87.2142 55.136 87.2142 55.424V57.368C87.2142 57.536 87.2862 57.644 87.4302 57.692C87.5742 57.716 87.7062 57.62 87.8262 57.404ZM100.655 73.784C99.5031 73.784 98.4711 73.4 97.5591 72.632C96.6471 71.864 95.9151 70.784 95.3631 69.392C94.8351 67.976 94.5711 66.344 94.5711 64.496C94.5711 62.6 94.8471 60.932 95.3991 59.492C95.9511 58.052 96.7071 56.924 97.6671 56.108C98.6271 55.292 99.6951 54.884 100.871 54.884C102.287 54.884 103.427 55.472 104.291 56.648C105.179 57.8 105.623 59.684 105.623 62.3C105.623 63.092 105.323 63.488 104.723 63.488H97.8831C97.4031 63.488 97.1631 63.764 97.1631 64.316C97.1631 66.86 97.5351 68.768 98.2791 70.04C99.0231 71.312 99.9711 71.948 101.123 71.948C102.035 71.948 102.779 71.624 103.355 70.976C103.931 70.328 104.399 69.236 104.759 67.7C104.831 67.436 104.987 67.304 105.227 67.304C105.515 67.304 105.623 67.544 105.551 68.024C105.167 70.16 104.555 71.66 103.715 72.524C102.875 73.364 101.855 73.784 100.655 73.784ZM97.7751 62.588H101.411C102.563 62.588 103.139 61.988 103.139 60.788C103.139 59.228 102.947 58.004 102.563 57.116C102.179 56.228 101.603 55.784 100.835 55.784C99.8991 55.784 99.1071 56.324 98.4591 57.404C97.8351 58.484 97.4271 60.02 97.2351 62.012C97.1871 62.396 97.3671 62.588 97.7751 62.588ZM7.09199 119.592C5.38799 119.592 4.00799 119.16 2.95199 118.296C1.91999 117.456 1.16399 116.364 0.683993 115.02C0.227993 113.676 -7.38353e-06 112.272 -7.38353e-06 110.808C-7.38353e-06 108.912 0.287993 107.004 0.863993 105.084C1.43999 103.164 2.21999 101.34 3.20399 99.612C4.21199 97.86 5.35199 96.312 6.62399 94.968C7.89599 93.6 9.22799 92.532 10.62 91.764C12.036 90.972 13.428 90.576 14.796 90.576C15.78 90.576 16.572 90.816 17.172 91.296C17.796 91.752 18.108 92.544 18.108 93.672C18.108 94.368 17.988 95.16 17.748 96.048C17.508 96.912 17.184 97.752 16.776 98.568C16.368 99.36 15.912 100.02 15.408 100.548C14.928 101.076 14.436 101.34 13.932 101.34C13.74 101.34 13.536 101.28 13.32 101.16C13.128 101.04 12.96 100.824 12.816 100.512C13.176 100.104 13.572 99.6 14.004 99C14.46 98.376 14.892 97.728 15.3 97.056C15.708 96.36 16.032 95.688 16.272 95.04C16.536 94.368 16.668 93.78 16.668 93.276C16.668 92.796 16.524 92.412 16.236 92.124C15.972 91.812 15.528 91.656 14.904 91.656C13.872 91.656 12.792 92.076 11.664 92.916C10.56 93.756 9.47999 94.884 8.42399 96.3C7.39199 97.692 6.45599 99.252 5.61599 100.98C4.77599 102.708 4.10399 104.472 3.59999 106.272C3.11999 108.072 2.87999 109.788 2.87999 111.42C2.87999 112.596 3.04799 113.724 3.38399 114.804C3.71999 115.86 4.25999 116.712 5.00399 117.36C5.77199 118.032 6.75599 118.368 7.95599 118.368C9.22799 118.368 10.488 118.008 11.736 117.288C13.008 116.568 14.172 115.62 15.228 114.444C16.284 113.268 17.124 111.996 17.748 110.628L18.252 110.988C17.46 112.548 16.5 113.988 15.372 115.308C14.244 116.604 12.984 117.636 11.592 118.404C10.2 119.196 8.69999 119.592 7.09199 119.592ZM19.4811 117.612C18.4491 117.612 17.7171 117.288 17.2851 116.64C16.8531 116.016 16.6371 115.248 16.6371 114.336C16.6371 113.592 16.7571 112.824 16.9971 112.032C17.2371 111.24 17.5491 110.496 17.9331 109.8C18.3411 109.104 18.7851 108.54 19.2651 108.108C19.7691 107.676 20.2731 107.46 20.7771 107.46C20.8971 107.46 21.0171 107.484 21.1371 107.532C21.2811 107.556 21.4131 107.592 21.5331 107.64C21.3171 107.832 21.0531 108.192 20.7411 108.72C20.4531 109.224 20.1771 109.812 19.9131 110.484C19.6491 111.132 19.4211 111.78 19.2291 112.428C19.0611 113.076 18.9771 113.628 18.9771 114.084C18.9771 114.804 19.0971 115.332 19.3371 115.668C19.5771 115.98 19.8891 116.136 20.2731 116.136C20.7771 116.136 21.3771 115.872 22.0731 115.344C22.7691 114.792 23.4531 114.096 24.1251 113.256C23.4531 112.704 22.9251 111.984 22.5411 111.096C22.1811 110.184 22.0011 109.26 22.0011 108.324C22.0011 107.532 22.1331 106.788 22.3971 106.092C22.6851 105.396 23.0931 104.844 23.6211 104.436C24.1491 104.004 24.7851 103.788 25.5291 103.788C26.5131 103.788 27.1731 104.052 27.5091 104.58C27.8451 105.108 28.0131 105.768 28.0131 106.56C28.0131 107.496 27.7851 108.54 27.3291 109.692C26.8731 110.82 26.2971 111.912 25.6011 112.968C26.0331 113.208 26.4891 113.328 26.9691 113.328C27.3531 113.328 27.7851 113.256 28.2651 113.112C28.7451 112.944 29.2131 112.668 29.6691 112.284C30.1491 111.9 30.5331 111.384 30.8211 110.736L31.2531 111.096C30.7731 112.224 30.0891 113.028 29.2011 113.508C28.3371 113.964 27.5091 114.192 26.7171 114.192C26.4051 114.192 26.1051 114.168 25.8171 114.12C25.5291 114.048 25.2531 113.952 24.9891 113.832C24.1731 114.912 23.2731 115.812 22.2891 116.532C21.3291 117.252 20.3931 117.612 19.4811 117.612ZM24.7731 112.32C25.3731 111.432 25.8651 110.508 26.2491 109.548C26.6571 108.564 26.8611 107.64 26.8611 106.776C26.8611 106.08 26.7531 105.576 26.5371 105.264C26.3451 104.928 26.0931 104.76 25.7811 104.76C25.3011 104.76 24.8091 105.108 24.3051 105.804C23.8011 106.5 23.5491 107.376 23.5491 108.432C23.5491 109.128 23.6451 109.836 23.8371 110.556C24.0531 111.252 24.3651 111.84 24.7731 112.32ZM31.5855 116.82C31.2735 116.82 30.9975 116.736 30.7575 116.568C30.5415 116.424 30.4335 116.184 30.4335 115.848C30.4335 115.584 30.5415 115.344 30.7575 115.128C30.9735 114.888 31.2375 114.708 31.5495 114.588C31.8855 114.444 32.2095 114.372 32.5215 114.372C32.8095 114.372 33.0375 114.432 33.2055 114.552C33.3735 114.672 33.4575 114.9 33.4575 115.236C33.4575 115.476 33.3615 115.716 33.1695 115.956C33.0015 116.196 32.7735 116.4 32.4855 116.568C32.1975 116.736 31.8975 116.82 31.5855 116.82Z" fill="#EFEBD8"/>
</svg>
